<mxfile host="Electron" agent="Mozilla/5.0 (Windows NT 10.0; Win64; x64) AppleWebKit/537.36 (KHTML, like Gecko) draw.io/26.0.4 Chrome/128.0.6613.186 Electron/32.2.5 Safari/537.36" version="26.0.4">
  <diagram name="Seite-1" id="Q6mDMwci4hGe6dcxtgbh">
    <mxGraphModel dx="757" dy="566" grid="1" gridSize="10" guides="1" tooltips="1" connect="1" arrows="1" fold="1" page="1" pageScale="1" pageWidth="583" pageHeight="827" math="0" shadow="0">
      <root>
        <mxCell id="0" />
        <mxCell id="1" parent="0" />
        <mxCell id="xUXN_BaWoNCwWtfrsrg5-1" value="DSR Model" style="ellipse;whiteSpace=wrap;html=1;aspect=fixed;fontFamily=Times New Roman;fontSize=17;strokeWidth=2;" parent="1" vertex="1">
          <mxGeometry x="137" y="259" width="310" height="310" as="geometry" />
        </mxCell>
        <mxCell id="xUXN_BaWoNCwWtfrsrg5-12" style="edgeStyle=orthogonalEdgeStyle;rounded=0;orthogonalLoop=1;jettySize=auto;html=1;strokeColor=default;curved=1;strokeWidth=1;" parent="1" edge="1">
          <mxGeometry relative="1" as="geometry">
            <mxPoint x="380" y="211" as="sourcePoint" />
            <mxPoint x="507" y="270" as="targetPoint" />
          </mxGeometry>
        </mxCell>
        <mxCell id="xUXN_BaWoNCwWtfrsrg5-2" value="&lt;b&gt;Problem Identification,&amp;nbsp;&lt;/b&gt;Motivation (Chapter 1)" style="rounded=1;whiteSpace=wrap;html=1;fontFamily=Times New Roman;fillColor=#eeeeee;strokeColor=#36393d;fontSize=16;strokeWidth=1;verticalAlign=middle;horizontal=1;opacity=0;" parent="1" vertex="1">
          <mxGeometry x="232" y="180" width="120" height="60" as="geometry" />
        </mxCell>
        <mxCell id="xUXN_BaWoNCwWtfrsrg5-13" style="edgeStyle=orthogonalEdgeStyle;rounded=1;orthogonalLoop=1;jettySize=auto;html=1;entryX=0.5;entryY=0;entryDx=0;entryDy=0;curved=0;strokeWidth=1;" parent="1" target="xUXN_BaWoNCwWtfrsrg5-4" edge="1">
          <mxGeometry relative="1" as="geometry">
            <mxPoint x="507" y="360" as="sourcePoint" />
          </mxGeometry>
        </mxCell>
        <mxCell id="xUXN_BaWoNCwWtfrsrg5-3" value="Definition of &lt;b&gt;Solution Objectives&lt;/b&gt; (Chapter 1, 2)" style="rounded=1;whiteSpace=wrap;html=1;fontFamily=Times New Roman;fillColor=#eeeeee;strokeColor=#36393d;fontSize=16;strokeWidth=1;verticalAlign=middle;horizontal=1;opacity=0;" parent="1" vertex="1">
          <mxGeometry x="447" y="280" width="120" height="60" as="geometry" />
        </mxCell>
        <mxCell id="xUXN_BaWoNCwWtfrsrg5-14" style="edgeStyle=orthogonalEdgeStyle;rounded=0;orthogonalLoop=1;jettySize=auto;html=1;entryX=1;entryY=0.5;entryDx=0;entryDy=0;curved=1;exitX=0.5;exitY=1;exitDx=0;exitDy=0;strokeWidth=1;" parent="1" source="xUXN_BaWoNCwWtfrsrg5-4" target="xUXN_BaWoNCwWtfrsrg5-5" edge="1">
          <mxGeometry relative="1" as="geometry" />
        </mxCell>
        <mxCell id="xUXN_BaWoNCwWtfrsrg5-4" value="Design and &lt;b&gt;Development &lt;/b&gt;(Chapter 4, 5)" style="rounded=1;whiteSpace=wrap;html=1;fontFamily=Times New Roman;fillColor=#eeeeee;strokeColor=#36393d;fontSize=16;strokeWidth=1;verticalAlign=middle;horizontal=1;opacity=0;" parent="1" vertex="1">
          <mxGeometry x="447" y="509" width="120" height="60" as="geometry" />
        </mxCell>
        <mxCell id="xUXN_BaWoNCwWtfrsrg5-15" style="edgeStyle=orthogonalEdgeStyle;rounded=0;orthogonalLoop=1;jettySize=auto;html=1;entryX=0.5;entryY=1;entryDx=0;entryDy=0;curved=1;strokeWidth=1;" parent="1" source="xUXN_BaWoNCwWtfrsrg5-5" target="xUXN_BaWoNCwWtfrsrg5-6" edge="1">
          <mxGeometry relative="1" as="geometry" />
        </mxCell>
        <mxCell id="xUXN_BaWoNCwWtfrsrg5-5" value="&lt;b&gt;Demonstration &lt;/b&gt;(Chapter 5)" style="rounded=1;whiteSpace=wrap;html=1;fontFamily=Times New Roman;fillColor=#eeeeee;strokeColor=#36393d;fontSize=16;strokeWidth=1;verticalAlign=middle;horizontal=1;opacity=0;" parent="1" vertex="1">
          <mxGeometry x="232" y="590" width="120" height="60" as="geometry" />
        </mxCell>
        <mxCell id="xUXN_BaWoNCwWtfrsrg5-16" style="edgeStyle=orthogonalEdgeStyle;rounded=0;orthogonalLoop=1;jettySize=auto;html=1;entryX=0.5;entryY=1;entryDx=0;entryDy=0;curved=1;strokeWidth=1;" parent="1" source="xUXN_BaWoNCwWtfrsrg5-6" target="xUXN_BaWoNCwWtfrsrg5-7" edge="1">
          <mxGeometry relative="1" as="geometry" />
        </mxCell>
        <mxCell id="xUXN_BaWoNCwWtfrsrg5-6" value="&lt;b&gt;Evaluation &lt;/b&gt;(Chapter 6)" style="rounded=1;whiteSpace=wrap;html=1;fontFamily=Times New Roman;fillColor=#eeeeee;strokeColor=#36393d;fontSize=16;strokeWidth=1;verticalAlign=middle;horizontal=1;glass=0;opacity=0;" parent="1" vertex="1">
          <mxGeometry x="17" y="509" width="120" height="60" as="geometry" />
        </mxCell>
        <mxCell id="xUXN_BaWoNCwWtfrsrg5-7" value="&lt;b&gt;Communication &lt;/b&gt;(Chapter 7, 8)" style="rounded=1;whiteSpace=wrap;html=1;fontFamily=Times New Roman;fillColor=#eeeeee;strokeColor=#36393d;fontSize=16;strokeWidth=1;verticalAlign=middle;horizontal=1;opacity=0;" parent="1" vertex="1">
          <mxGeometry x="17" y="280" width="120" height="60" as="geometry" />
        </mxCell>
      </root>
    </mxGraphModel>
  </diagram>
</mxfile>
